<svg width="64" height="64" viewBox="0 0 64 64" fill="none" xmlns="http://www.w3.org/2000/svg">
<path d="M3 7.12951C3 4.87295 4.91808 3 7.28747 3H56.4805C58.8499 3 60.768 4.85038 60.768 7.12951V56.6385C60.768 58.8951 58.8499 60.768 56.4805 60.768H7.28747C4.91808 60.768 3 58.9176 3 56.6385V7.12951Z" fill="black"/>
<path d="M20.5561 51.3355V25.3399H11.9134V51.3355H20.5561ZM16.246 21.7746C19.2473 21.7746 21.1202 19.7888 21.1202 17.284C21.0751 14.7341 19.2473 12.7935 16.3137 12.7935C13.3576 12.7935 11.417 14.7341 11.417 17.3066C11.417 19.7888 13.2899 21.7971 16.2009 21.7971H16.246V21.7746ZM25.34 51.3355H33.9826V36.8484C33.9826 36.0586 34.0503 35.2688 34.276 34.7272C34.8852 33.1928 36.3069 31.5681 38.6988 31.5681C41.8355 31.5681 43.0766 33.96 43.0766 37.4351V51.3581H51.7418V36.4648C51.7418 28.4766 47.4769 24.7307 41.8129 24.7307C40.2256 24.6694 38.6522 25.0479 37.2665 25.8244C35.8807 26.6009 34.7365 27.7452 33.9601 29.131H34.0052V25.3399H25.34C25.4528 27.777 25.34 51.3355 25.34 51.3355Z" fill="white"/>
</svg>
